{"title":"Airline.Disaster.2010.DVDRip.XviD.FEEL-FREE","uid":5693741,"size":943534249,"categoryP":"video","categoryS":"movies","magnet":"?xt=urn:btih:700f2832b55539320bc841d822bab1adbe4ffc40&amp;dn=Airline.Disaster.2010.DVDRip.XviD.FEEL-FREE&amp;tr=udp%3A%2F%2Ftracker.openbittorrent.com%3A80&amp;tr=udp%3A%2F%2Fopen.demonii.com%3A1337&amp;tr=udp%3A%2F%2Ftracker.coppersurfer.tk%3A6969&amp;tr=udp%3A%2F%2Fexodus.desync.com%3A6969","seeders":0,"leechers":1,"uploader":"neon","files":7,"time":1279184751,"description":" &lt;a href=&quot;http://www.starshare.ro/bitbucket/Airline.Disaster.2010.DVDRip.XviD.FEEL-FREE.avi_thumbs_%5B2010.07.15_09.23.43%5D.jpg&quot; rel=&quot;nofollow&quot; target=&quot;_NEW&quot;&gt;http://www.starshare.ro/bitbucket/Airline.Disaster.2010.DVDRip.XviD.FEEL-FREE.avi_thumbs_%5B2010.07.15_09.23.43%5D.jpg&lt;/a&gt;\n\nGenre:Action\nLanguage:English\nIMDb:http://www.imdb.com/title/tt1610528/\nSource:DVD\nEncoder: Tony2\n\nPlot:\nWhen the President learns that domestic terrorists have skyjacked the passenger jet her brother is flying, she must choose between family and the safety of the people in the cities below.\n\n............................................\nGeneral\nComplete name : Airline.Disaster.2010.DVDRip.XviD.FEEL-FREE\nFormat : AVI\nFormat/Info : Audio Video Interleave\nFile size : 899 MiB\nDuration : 1h 29mn\nOverall bit rate : 1 405 Kbps\n.............................................\nVideo\nFormat : xvid\nCodec ID : xvid\nDuration : 1h 29mn\nBit rate : 1 199 Kbps\nWidth : 720 pixels\nHeight : 304 pixels\nDisplay aspect ratio : 2.35:1\nFrame rate : 29.970 fps\nResolution : 24 bits\nBits/(Pixel*Frame) : 0.183\nStream size : 767 MiB (85%)\n.............................................\nAudio\nID : 1\nFormat : MPEG Audio\nFormat version : Version 1\nFormat profile : Layer 3\nFormat settings, Mode : Joint stereo / MS Stereo\nCodec ID : 55\nCodec ID/Hint : MP3\nDuration : 1h 29mn\nBit rate mode : Constant\nBit rate : 192 Kbps\nChannel(s) : 2 channels\nSampling rate : 48.0 KHz\nResolution : 16 bits\nStream size : 123 MiB (14%)\nAlignment : Aligned on interleaves\nInterleave, duration : 24 ms (0.72 video frame)\nWriting library : LAME3.97\n..............................................","torrent":{"xt":"urn:btih:700f2832b55539320bc841d822bab1adbe4ffc40","amp;dn":"Airline.Disaster.2010.DVDRip.XviD.FEEL-FREE","amp;tr":["udp%3A%2F%2Ftracker.openbittorrent.com%3A80","udp%3A%2F%2Fopen.demonii.com%3A1337","udp%3A%2F%2Ftracker.coppersurfer.tk%3A6969","udp%3A%2F%2Fexodus.desync.com%3A6969"],"infoHash":"700f2832b55539320bc841d822bab1adbe4ffc40","infoHashBuffer":{"type":"Buffer","data":[112,15,40,50,181,85,57,50,11,200,65,216,34,186,177,173,190,79,252,64]},"announce":[],"urlList":[]}}